HIERARCHY
ROOT Hips
{
  OFFSET -24.5077 92.419 -73.7383
  CHANNELS 6 Xposition Yposition Zposition Zrotation Xrotation Yrotation
  JOINT LeftUpLeg
  {
    OFFSET 9.63379 -0.250344 0
    CHANNELS 6 Xposition Yposition Zposition Zrotation Xrotation Yrotation
    JOINT LeftLeg
    {
      OFFSET 0 -40.4779 -1.71313
      CHANNELS 6 Xposition Yposition Zposition Zrotation Xrotation Yrotation
      JOINT LeftFoot
      {
        OFFSET 0.0126047 -40.4416 -0.864524
        CHANNELS 6 Xposition Yposition Zposition Zrotation Xrotation Yrotation
        JOINT LeftToeBase
        {
          OFFSET -0.183287 -12.1867 8.28226
          CHANNELS 6 Xposition Yposition Zposition Zrotation Xrotation Yrotation
          End Site
          {
            OFFSET 0 0 9.15615
          }
        }
      }
    }
  }
  JOINT RightUpLeg
  {
    OFFSET -9.63379 -0.250344 0
    CHANNELS 6 Xposition Yposition Zposition Zrotation Xrotation Yrotation
    JOINT RightLeg
    {
      OFFSET 0 -40.478 -1.71313
      CHANNELS 6 Xposition Yposition Zposition Zrotation Xrotation Yrotation
      JOINT RightFoot
      {
        OFFSET -0.0126047 -40.4414 -0.864524
        CHANNELS 6 Xposition Yposition Zposition Zrotation Xrotation Yrotation
        JOINT RightToeBase
        {
          OFFSET 0.183287 -12.1867 8.28226
          CHANNELS 6 Xposition Yposition Zposition Zrotation Xrotation Yrotation
          End Site
          {
            OFFSET 0.00319481 0 9.156
          }
        }
      }
    }
  }
  JOINT Spine
  {
    OFFSET 0 5.60909 -1.89659
    CHANNELS 6 Xposition Yposition Zposition Zrotation Xrotation Yrotation
    JOINT Spine1
    {
      OFFSET 0 6.56349 1.09934
      CHANNELS 6 Xposition Yposition Zposition Zrotation Xrotation Yrotation
      JOINT Spine2
      {
        OFFSET 0 7.57662 1.04304
        CHANNELS 6 Xposition Yposition Zposition Zrotation Xrotation Yrotation
        JOINT Spine3
        {
          OFFSET 0 8.29213 0.399731
          CHANNELS 6 Xposition Yposition Zposition Zrotation Xrotation Yrotation
          JOINT Spine4
          {
            OFFSET 0 8.9581 -0.526302
            CHANNELS 6 Xposition Yposition Zposition Zrotation Xrotation Yrotation
            JOINT Neck
            {
              OFFSET 0 18.4163 -4.35419
              CHANNELS 6 Xposition Yposition Zposition Zrotation Xrotation Yrotation
              JOINT Head
              {
                OFFSET 0 8.97127 1.78542
                CHANNELS 6 Xposition Yposition Zposition Zrotation Xrotation Yrotation
                End Site
                {
                  OFFSET 0 19.3737 0.971395
                }
              }
            }
            JOINT LeftShoulder
            {
              OFFSET 6.14423 15.3316 -3.79324
              CHANNELS 6 Xposition Yposition Zposition Zrotation Xrotation Yrotation
              JOINT LeftArm
              {
                OFFSET 9.01906 -1.11411 -1.79347
                CHANNELS 6 Xposition Yposition Zposition Zrotation Xrotation Yrotation
                JOINT LeftForeArm
                {
                  OFFSET 27.687 0 0
                  CHANNELS 6 Xposition Yposition Zposition Zrotation Xrotation Yrotation
                  JOINT LeftHand
                  {
                    OFFSET 27.8738 0 0
                    CHANNELS 6 Xposition Yposition Zposition Zrotation Xrotation Yrotation
                    End Site
                    {
                      OFFSET 5 0 0
                    }
                  }
                }
              }
            }
            JOINT RightShoulder
            {
              OFFSET -6.14423 15.3316 -3.79324
              CHANNELS 6 Xposition Yposition Zposition Zrotation Xrotation Yrotation
              JOINT RightArm
              {
                OFFSET -9.01884 -1.11411 -1.79347
                CHANNELS 6 Xposition Yposition Zposition Zrotation Xrotation Yrotation
                JOINT RightForeArm
                {
                  OFFSET -27.0381 0.00109999 0
                  CHANNELS 6 Xposition Yposition Zposition Zrotation Xrotation Yrotation
                  JOINT RightHand
                  {
                    OFFSET -28.5227 0 0
                    CHANNELS 6 Xposition Yposition Zposition Zrotation Xrotation Yrotation
                    End Site
                    {
                      OFFSET -5 0 0
                    }
                  }
                }
              }
            }
          }
        }
      }
    }
  }
}
MOTION
Frames:	5
Frame Time:	0.00833333
-27.3803 91.9683 -102.196 1.33818 1.61702 6.00982 9.63379 -0.250344 -7.15256e-007 1.02526 -2.79896 9.21696 0 -40.4779 -1.71313 1.13839 3.76768 -0.0601936 0.0126047 -40.4416 -0.864524 0.128648 -0.725104 -0.0021532 -0.183287 -12.1867 8.28226 1.11875e-011 -6.27086e-012 6.25742e-011 -9.63379 -0.250344 -7.15256e-007 -2.34465 -2.85935 1.91968 0 -40.478 -1.71313 0.758101 4.09974 -1.03581 -0.0126047 -40.4414 -0.864524 -0.0472011 -2.33555 -0.000279048 0.183287 -12.1867 8.28226 -7.42043e-012 4.50859e-012 3.68865e-011 -2.64698e-023 5.60909 -1.89659 0.07353 -0.0573549 -0.220268 0 6.56349 1.09934 -0.0722079 -0.102069 -0.454278 0 7.57662 1.04304 -0.0721661 -0.102041 -0.454292 0 8.29213 0.399731 -0.0721247 -0.102011 -0.454305 0 8.9581 -0.526302 -0.0720834 -0.101982 -0.454318 0 18.4163 -4.35419 -3.67347 26.23 1.408 1.05879e-022 8.97127 1.78542 1.94314 -10.5875 -0.71427 6.14423 15.3316 -3.79324 -21.9049 1.5022 -1.80817 9.01906 -1.11411 -1.79347 -57.9826 15.6607 -6.76331 27.687 0 0 -3.42409 26.1972 -15.0351 27.8738 0 0 11.2023 -0.248621 3.58888 -6.14423 15.3316 -3.79324 24.7781 7.33257 19.8608 -9.01884 -1.11411 -1.79347 60.8306 17.472 -1.28313 -27.0381 0.00109999 5.96046e-008 -8.57288 6.12465 2.38249 -28.5227 0 0 -4.48612 -2.42117 -8.58265 
-27.3802 91.9677 -102.196 1.33834 1.61862 5.99402 9.63379 -0.250344 -7.15256e-007 1.02626 -2.80034 9.21697 0 -40.4779 -1.71313 1.13563 3.77045 -0.0601938 0.0126047 -40.4416 -0.864524 0.128648 -0.723932 -0.0021532 -0.183287 -12.1867 8.28226 1.11875e-011 -6.27086e-012 6.25742e-011 -9.63379 -0.250344 -7.15256e-007 -2.34292 -2.86451 1.9476 0 -40.478 -1.71313 0.758162 4.1031 -1.03581 -0.0126047 -40.4414 -0.864524 -0.0472011 -2.34062 -0.000279049 0.183287 -12.1867 8.28226 -7.42043e-012 4.50859e-012 3.68865e-011 -2.64698e-023 5.60909 -1.89659 0.07353 -0.0573549 -0.220268 0 6.56349 1.09934 -0.0717395 -0.0998637 -0.451287 0 7.57662 1.04304 -0.0716981 -0.0998349 -0.4513 0 8.29213 0.399731 -0.071657 -0.0998057 -0.451313 0 8.9581 -0.526302 -0.0716161 -0.0997762 -0.451326 0 18.4163 -4.35419 -3.69878 26.2116 1.41618 1.05879e-022 8.97127 1.78542 1.95069 -10.5961 -0.719329 6.14423 15.3316 -3.79324 -21.8934 1.50743 -1.82871 9.01906 -1.11411 -1.79347 -57.9875 15.6558 -6.78111 27.687 0 0 -3.42532 26.1961 -15.0248 27.8738 0 0 11.0807 -0.269853 3.79901 -6.14423 15.3316 -3.79324 24.7661 7.33905 19.8894 -9.01884 -1.11411 -1.79347 60.8307 17.4914 -1.28517 -27.0381 0.00109999 5.96046e-008 -8.58358 6.142 2.39207 -28.5227 0 0 -4.49047 -2.42223 -8.58321 
-27.3802 91.9673 -102.197 1.33795 1.61967 5.97834 9.63379 -0.250344 -7.15256e-007 1.0276 -2.80209 9.21698 0 -40.4779 -1.71313 1.13382 3.77499 -0.0601941 0.0126047 -40.4416 -0.864524 0.128648 -0.723386 -0.0021532 -0.183287 -12.1867 8.28226 1.11875e-011 -6.27086e-012 6.25742e-011 -9.63379 -0.250344 -7.15256e-007 -2.34027 -2.86866 1.97656 0 -40.478 -1.71313 0.758199 4.10517 -1.03582 -0.0126047 -40.4414 -0.864524 -0.0472011 -2.34431 -0.00027905 0.183287 -12.1867 8.28226 -7.42043e-012 4.50859e-012 3.68865e-011 -2.64698e-023 5.60909 -1.89659 0.07353 -0.0573549 -0.220268 0 6.56349 1.09934 -0.070902 -0.0978537 -0.448391 0 7.57662 1.04304 -0.070861 -0.0978249 -0.448403 0 8.29213 0.399731 -0.0708202 -0.0977959 -0.448416 0 8.9581 -0.526302 -0.0707797 -0.0977665 -0.448429 0 18.4163 -4.35419 -3.72159 26.1988 1.42092 1.05879e-022 8.97127 1.78542 1.95197 -10.6051 -0.726046 6.14423 15.3316 -3.79324 -21.8826 1.51239 -1.84812 9.01906 -1.11411 -1.79347 -57.9917 15.6523 -6.7985 27.687 0 0 -3.42847 26.1918 -15.014 27.8738 0 0 10.9758 -0.288302 3.98228 -6.14423 15.3316 -3.79324 24.7543 7.34548 19.9176 -9.01884 -1.11411 -1.79347 60.8302 17.5131 -1.28788 -27.0381 0.00109999 5.96046e-008 -8.59422 6.15211 2.40061 -28.5227 0 0 -4.49774 -2.42343 -8.58232 
-27.3807 91.967 -102.196 1.33614 1.61934 5.96299 9.63379 -0.250344 -7.15256e-007 1.02976 -2.80479 9.21701 0 -40.4779 -1.71313 1.13437 3.78397 -0.0601947 0.0126047 -40.4416 -0.864524 0.128648 -0.724404 -0.0021532 -0.183287 -12.1867 8.28226 1.11875e-011 -6.27086e-012 6.25742e-011 -9.63379 -0.250344 -7.15256e-007 -2.33534 -2.87026 2.00811 0 -40.478 -1.71313 0.758179 4.10404 -1.03582 -0.0126047 -40.4414 -0.864524 -0.0472011 -2.34456 -0.00027905 0.183287 -12.1867 8.28226 -7.42043e-012 4.50859e-012 3.68865e-011 -2.64698e-023 5.60909 -1.89659 0.07353 -0.0573549 -0.220268 0 6.56349 1.09934 -0.0691417 -0.096333 -0.445732 0 7.57662 1.04304 -0.0691009 -0.0963044 -0.445744 0 8.29213 0.399731 -0.0690604 -0.0962756 -0.445757 0 8.9581 -0.526302 -0.0690202 -0.0962464 -0.445769 0 18.4163 -4.35419 -3.73814 26.2001 1.41707 1.05879e-022 8.97127 1.78542 1.93757 -10.615 -0.736904 6.14423 15.3316 -3.79324 -21.8736 1.51663 -1.86472 9.01906 -1.11411 -1.79347 -57.994 15.6523 -6.81483 27.687 0 0 -3.4364 26.1795 -15.002 27.8738 0 0 10.9126 -0.299825 4.09838 -6.14423 15.3316 -3.79324 24.7431 7.35177 19.9451 -9.01884 -1.11411 -1.79347 60.8284 17.5403 -1.2923 -27.0381 0.00109999 5.96046e-008 -8.60475 6.14412 2.40654 -28.5227 0 0 -4.51229 -2.425 -8.57777 
-27.3818 91.9672 -102.195 1.33203 1.61741 5.94745 9.63379 -0.250344 -7.15256e-007 1.03335 -2.80909 9.21551 0 -40.4779 -1.71313 1.13823 3.79953 -0.0601958 0.0126047 -40.4416 -0.864524 0.128648 -0.727844 -0.0021532 -0.183287 -12.1867 8.28226 1.11875e-011 -6.27086e-012 6.25742e-011 -9.63379 -0.250344 -7.15256e-007 -2.32667 -2.86869 2.04387 0 -40.478 -1.71313 0.759649 4.09839 -1.03703 -0.0126047 -40.4414 -0.864524 -0.0472011 -2.33975 -0.000279049 0.183287 -12.1867 8.28226 -7.42043e-012 4.50859e-012 3.68865e-011 -2.64698e-023 5.60909 -1.89659 0.07353 -0.0573549 -0.220268 0 6.56349 1.09934 -0.066015 -0.0956663 -0.443397 0 7.57662 1.04304 -0.0659745 -0.0956382 -0.443409 0 8.29213 0.399731 -0.0659342 -0.0956097 -0.443421 0 8.9581 -0.526302 -0.0658942 -0.0955809 -0.443433 0 18.4163 -4.35419 -3.74482 26.2212 1.39875 1.05879e-022 8.97127 1.78542 1.89524 -10.6256 -0.754801 6.14423 15.3316 -3.79324 -21.8672 1.51989 -1.8774 9.01906 -1.11411 -1.79347 -57.9937 15.6569 -6.82974 27.687 0 0 -3.45316 26.1526 -14.9858 27.8738 0 0 10.9109 -0.300936 4.11303 -6.14423 15.3316 -3.79324 24.7327 7.35933 19.9759 -9.01884 -1.11411 -1.79347 60.8254 17.5764 -1.30161 -27.0381 0.00109999 5.96046e-008 -8.61535 6.10906 2.40889 -28.5227 0 0 -4.53564 -2.42675 -8.56796 
